HIERARCHY
ROOT Hips
{
 OFFSET 0.000000 0.000000 0.000000
 CHANNELS 6 Xposition Yposition Zposition Yrotation Xrotation Zrotation
 JOINT Chest
 {
  OFFSET 0.000000 9.585900 0.002600
  CHANNELS 3 Yrotation Xrotation Zrotation
  JOINT Chest2
  {
   OFFSET 0.000000 9.601200 -0.005300
   CHANNELS 3 Yrotation Xrotation Zrotation
   JOINT Chest3
   {
    OFFSET 0.000000 9.561800 0.000000
    CHANNELS 3 Yrotation Xrotation Zrotation
    JOINT Chest4
    {
     OFFSET 0.000000 9.552100 0.000000
     CHANNELS 3 Yrotation Xrotation Zrotation
     JOINT Neck
     {
      OFFSET 0.000000 14.453000 0.000000
      CHANNELS 3 Yrotation Xrotation Zrotation
      JOINT Head
      {
       OFFSET 0.000000 8.936500 -0.011300
       CHANNELS 3 Yrotation Xrotation Zrotation
       End Site
       {
        OFFSET 0.000000 17.073600 -0.006000
       }
      }
     }
     JOINT RightCollar
     {
      OFFSET -2.921100 9.558500 0.000000
      CHANNELS 3 Yrotation Xrotation Zrotation
      JOINT RightShoulder
      {
       OFFSET -13.519700 0.000000 0.000000
       CHANNELS 3 Yrotation Xrotation Zrotation
       JOINT RightElbow
       {
        OFFSET 0.000000 -29.696600 0.000000
        CHANNELS 3 Yrotation Xrotation Zrotation
        JOINT RightWrist
        {
         OFFSET 0.000000 -24.004700 0.000000
         CHANNELS 3 Yrotation Xrotation Zrotation
         End Site
         {
          OFFSET 0.000000 -17.728500 0.000000
         }
        }
       }
      }
     }
     JOINT LeftCollar
     {
      OFFSET 2.921100 9.558500 0.000000
      CHANNELS 3 Yrotation Xrotation Zrotation
      JOINT LeftShoulder
      {
       OFFSET 13.519700 0.000000 0.000000
       CHANNELS 3 Yrotation Xrotation Zrotation
       JOINT LeftElbow
       {
        OFFSET 0.000000 -29.696600 0.000000
        CHANNELS 3 Yrotation Xrotation Zrotation
        JOINT LeftWrist
        {
         OFFSET 0.000000 -24.004700 0.000000
         CHANNELS 3 Yrotation Xrotation Zrotation
         End Site
         {
          OFFSET 0.000000 -17.728500 0.000000
         }
        }
       }
      }
     }
    }
   }
  }
 }
 JOINT RightHip
 {
  OFFSET -7.771700 -0.012900 -0.001300
  CHANNELS 3 Yrotation Xrotation Zrotation
  JOINT RightKnee
  {
   OFFSET 0.000000 -40.869800 0.001200
   CHANNELS 3 Yrotation Xrotation Zrotation
   JOINT RightAnkle
   {
    OFFSET 0.000000 -39.717900 0.002100
    CHANNELS 3 Yrotation Xrotation Zrotation
    JOINT RightToe
    {
     OFFSET 0.000000 -4.965400 11.033500
     CHANNELS 3 Yrotation Xrotation Zrotation
     End Site
     {
      OFFSET 0.000000 -1.423100 5.872300
     }
    }
   }
  }
 }
 JOINT LeftHip
 {
  OFFSET 7.771700 -0.012900 -0.001300
  CHANNELS 3 Yrotation Xrotation Zrotation
  JOINT LeftKnee
  {
   OFFSET 0.000000 -40.869800 0.001200
   CHANNELS 3 Yrotation Xrotation Zrotation
   JOINT LeftAnkle
   {
    OFFSET 0.000000 -39.717900 0.002100
    CHANNELS 3 Yrotation Xrotation Zrotation
    JOINT LeftToe
    {
     OFFSET 0.000000 -4.965400 11.033500
     CHANNELS 3 Yrotation Xrotation Zrotation
     End Site
     {
      OFFSET 0.000000 -1.423100 5.872300
     }
    }
   }
  }
 }
}
MOTION
Frames: 13
Frame Time: 0.008333
-28.039568 55.267476 6.135198 -177.265377 -17.546929 -1.555519 -0.265335 15.654618 0.423650 -0.010973 1.532064 0.046122 -0.014195 2.515361 0.115703 -0.045010 14.008849 0.541007 -0.568564 13.585473 -2.357495 -0.074373 -11.413497 -2.343835 0.603750 0.855781 2.230009 0.773659 -5.437823 -7.383360 -79.624931 -60.987391 108.361971 -13.758874 -0.049385 1.546456 -5.062475 -1.549631 1.519070 4.088578 -8.594396 7.410797 65.235212 -52.847293 -105.871173 8.309290 -6.043570 5.304597 -0.833530 -57.476500 10.698798 -84.320965 87.552113 -89.459297 -11.174700 -21.992057 13.511416 0.092227 0.198691 -0.321578 9.554706 -54.008481 -6.052276 110.059195 77.265054 106.619491 -8.075351 -23.959347 2.389211 -0.033015 0.099261 -0.015854
-28.035578 55.263936 6.131356 -177.273913 -17.563707 -1.538064 -0.260816 15.651223 0.421928 -0.010466 1.531048 0.046788 -0.013183 2.515889 0.115882 -0.037201 14.004577 0.544726 -0.573375 13.562495 -2.386666 -0.036176 -11.530607 -2.411193 0.597321 0.862238 2.220684 0.801978 -5.456428 -7.398011 -79.630054 -61.008313 108.435417 -13.777640 -0.035883 1.521051 -5.067065 -1.534978 1.513973 4.114193 -8.580634 7.417040 65.206833 -52.841329 -105.849215 8.316555 -6.037640 5.321476 -0.821926 -57.462694 10.687504 -84.979478 87.525107 -90.117169 -11.271532 -22.076900 13.674266 0.080807 0.216704 -0.352433 9.576116 -53.992226 -6.071923 110.081065 77.261167 106.643829 -8.070058 -23.962595 2.389892 -0.039154 0.102417 -0.021271
-28.031256 55.260089 6.128184 -177.280029 -17.577107 -1.523632 -0.256981 15.645774 0.422649 -0.011536 1.529130 0.047115 -0.010760 2.518400 0.116436 -0.020832 13.985074 0.567038 -0.566887 13.491110 -2.456588 -0.017960 -11.576969 -2.455444 0.594371 0.871359 2.199980 0.820774 -5.460981 -7.415241 -79.602108 -60.998707 108.424370 -13.773302 -0.035004 1.504238 -5.050012 -1.524281 1.520509 4.103268 -8.554607 7.393534 65.173571 -52.839231 -105.819914 8.320340 -6.033173 5.336349 -0.819160 -57.456797 10.674876 -85.748741 87.502470 -90.878792 -11.357353 -22.158903 13.812361 0.064132 0.226060 -0.366517 9.594901 -53.983147 -6.089733 110.099401 77.246487 106.667991 -8.076305 -23.962179 2.383314 -0.039900 0.101640 -0.021103
-28.026989 55.257219 6.121401 -177.286377 -17.613217 -1.509639 -0.252048 15.664401 0.423840 -0.010908 1.527995 0.047768 -0.011675 2.528494 0.109426 -0.011348 13.980283 0.577919 -0.543124 13.403809 -2.513369 0.001596 -11.621585 -2.502433 0.597980 0.858825 2.202857 0.825275 -5.451207 -7.435288 -79.584108 -60.989791 108.429404 -13.768255 -0.029606 1.501837 -5.045859 -1.520172 1.520322 4.106681 -8.547778 7.400303 65.144903 -52.838557 -105.796766 8.321979 -6.031014 5.347838 -0.795940 -57.424419 10.644788 -86.604538 87.479938 -91.734920 -11.367267 -22.270887 13.958148 0.071391 0.243478 -0.384973 9.611153 -53.948696 -6.099712 110.117670 77.238926 106.692573 -8.081185 -23.959961 2.377846 -0.038900 0.096496 -0.020831
-28.021802 55.253458 6.116583 -177.286751 -17.635884 -1.501522 -0.253398 15.669565 0.429721 -0.008143 1.529136 0.046791 -0.013114 2.537436 0.103030 -0.005591 13.978788 0.584820 -0.520791 13.340367 -2.560667 0.032727 -11.682929 -2.561619 0.613527 0.846862 2.209709 0.860449 -5.466444 -7.453459 -79.542022 -60.977953 108.386203 -13.767779 0.007139 1.574128 -5.037429 -1.515236 1.522828 4.104248 -8.543967 7.409133 65.125487 -52.842170 -105.783468 8.319100 -6.028435 5.356525 -0.794365 -57.403909 10.620724 -87.495407 87.472816 -92.629353 -11.356418 -22.405755 14.113351 0.076096 0.268757 -0.413809 9.622353 -53.928169 -6.107420 110.132876 77.233790 106.715660 -8.085477 -23.964937 2.370856 -0.037755 0.099792 -0.018705
-28.016621 55.249214 6.112219 -177.284013 -17.654358 -1.493011 -0.258960 15.673767 0.431115 -0.007265 1.513645 0.061897 -0.012407 2.552716 0.091675 -0.008695 13.990162 0.574110 -0.488978 13.277981 -2.599854 0.066825 -11.738859 -2.622107 0.666565 0.830740 2.249203 0.871857 -5.479455 -7.493578 -79.502445 -60.968467 108.352015 -13.760893 0.036475 1.595950 -5.020588 -1.509995 1.533250 4.101495 -8.553161 7.454465 65.116048 -52.809660 -105.790395 8.313112 -6.022630 5.364504 -0.793700 -57.386284 10.597272 -88.423703 87.469778 -93.563524 -11.363815 -22.557590 14.289323 0.080374 0.300602 -0.447996 9.634163 -53.911221 -6.118398 110.150727 77.230946 106.741498 -8.091025 -23.972184 2.365256 -0.027716 0.105846 -0.015842
-28.013404 55.245091 6.106166 -177.288170 -17.682723 -1.470257 -0.260663 15.696748 0.412488 -0.007117 1.514014 0.061934 -0.010731 2.530344 0.116491 -0.006513 14.006269 0.563114 -0.467180 13.230823 -2.649929 0.102366 -11.790542 -2.682876 0.694401 0.835267 2.265343 0.862765 -5.484690 -7.524251 -79.474702 -60.959294 108.345543 -13.752346 0.070577 1.615722 -5.009506 -1.494668 1.530301 4.084616 -8.560229 7.453301 65.096565 -52.824211 -105.772935 8.307367 -6.010874 5.376365 -0.755400 -57.364301 10.538782 -89.536459 87.476348 -94.675869 -11.380479 -22.716902 14.478890 0.085940 0.325611 -0.483719 9.664625 -53.881545 -6.145977 110.165759 77.229633 106.761792 -8.090883 -23.974070 2.359957 -0.024718 0.104890 -0.013866
-28.012329 55.241416 6.097663 -177.291176 -17.725965 -1.435803 -0.268084 15.721053 0.392955 -0.006755 1.515958 0.062193 -0.010470 2.543674 0.104366 0.000824 14.003180 0.578889 -0.442192 13.188142 -2.701257 0.137043 -11.838336 -2.743658 0.718947 0.839690 2.272477 0.859329 -5.492971 -7.549195 -79.460731 -60.953813 108.327072 -13.746734 0.089133 1.625717 -4.997487 -1.481111 1.523610 4.067605 -8.570379 7.453385 65.083608 -52.833679 -105.761566 8.296650 -5.986922 5.390851 -0.697261 -57.325714 10.471589 -90.660742 87.479519 -95.793074 -11.500410 -22.876795 14.695073 0.083729 0.352480 -0.515071 9.705885 -53.832039 -6.187484 110.167281 77.231187 106.764894 -8.092583 -23.972667 2.361042 -0.023600 0.102165 -0.015012
-28.009208 55.235674 6.094923 -177.299427 -17.732437 -1.411874 -0.263489 15.700182 0.395309 -0.010276 1.527932 0.052425 -0.009383 2.546850 0.105485 0.006830 14.011013 0.584680 -0.420114 13.152707 -2.752639 0.169535 -11.882657 -2.804167 0.725368 0.843358 2.266231 0.894814 -5.509360 -7.563052 -79.449187 -60.947640 108.286887 -13.740775 0.164865 1.676274 -4.992669 -1.466415 1.516172 4.044753 -8.584970 7.486929 65.107473 -52.798819 -105.780973 8.273182 -5.947246 5.405673 -0.662416 -57.322980 10.441859 -91.401882 87.477805 -96.529596 -11.650760 -23.021142 14.918626 0.079246 0.375573 -0.542752 9.742696 -53.821746 -6.219157 110.164427 77.230867 106.760688 -8.094517 -23.983510 2.370197 -0.028395 0.112024 -0.021298
-28.005198 55.229941 6.091904 -177.305227 -17.741167 -1.397411 -0.260674 15.694551 0.396519 -0.005459 1.531930 0.052834 -0.008733 2.551973 0.106761 0.022601 14.029377 0.609003 -0.417506 13.106811 -2.817963 0.199168 -11.922930 -2.862454 0.717832 0.830178 2.244597 0.927536 -5.524364 -7.570135 -79.420796 -60.945800 108.255545 -13.729408 0.243061 1.705948 -5.008481 -1.471977 1.493350 4.035077 -8.596209 7.483406 65.091919 -52.820583 -105.760203 8.265087 -5.917558 5.409483 -0.643428 -57.314538 10.415223 -92.083372 87.494094 -97.220646 -11.689305 -23.166214 15.124894 0.091507 0.379461 -0.567789 9.765839 -53.809936 -6.235111 110.157173 77.231084 106.751982 -8.095376 -23.995828 2.376903 -0.032801 0.123639 -0.024829
-28.006882 55.224334 6.088654 -177.265334 -17.753699 -1.368120 -0.311144 15.691049 0.370082 -0.003926 1.529297 0.061654 -0.009286 2.565755 0.098310 0.035462 14.044995 0.619620 -0.406490 13.069552 -2.871608 0.226340 -11.958444 -2.918073 0.762250 0.831755 2.263041 0.919054 -5.548785 -7.603079 -79.391097 -60.947025 108.217242 -13.715585 0.318630 1.731788 -5.016262 -1.466106 1.480959 4.020062 -8.613355 7.505690 65.098854 -52.823713 -105.764765 8.259005 -5.889740 5.414926 -0.617659 -57.298347 10.325913 -92.873251 87.529240 -98.024109 -11.712555 -23.299478 15.323269 0.122100 0.365274 -0.580009 9.785525 -53.787922 -6.298664 110.145658 77.233608 106.741506 -8.109989 -24.019131 2.379598 -0.024401 0.147274 -0.019141
-28.008676 55.220504 6.080866 -177.259883 -17.798715 -1.335750 -0.325380 15.730091 0.340534 -0.003286 1.532383 0.058632 -0.005610 2.563247 0.109037 0.037972 14.056336 0.622655 -0.395104 13.045457 -2.907655 0.262124 -11.994805 -2.981534 0.784383 0.836783 2.271206 0.939643 -5.565968 -7.615970 -79.350909 -60.948213 108.168067 -13.697436 0.398630 1.765029 -5.016167 -1.448990 1.477823 4.004808 -8.622665 7.550901 65.105529 -52.836553 -105.777605 8.275720 -5.890514 5.411269 -0.578374 -57.253792 10.276385 -93.786886 87.561827 -98.946611 -11.833957 -23.400743 15.533656 0.107955 0.334737 -0.589808 9.830622 -53.730311 -6.347313 110.117504 77.240310 106.720503 -8.124369 -24.025466 2.380542 -0.013386 0.153449 -0.011721
-28.010747 55.215239 6.079198 -177.268909 -17.810020 -1.303427 -0.325828 15.736684 0.315937 -0.003483 1.530539 0.065804 -0.004605 2.567224 0.110494 0.036133 14.060461 0.613040 -0.391112 13.037850 -2.919835 0.315079 -12.037014 -3.061288 0.807568 0.851106 2.289242 0.958251 -5.590617 -7.632045 -79.292701 -60.939039 108.107773 -13.669237 0.488259 1.799277 -5.015704 -1.436163 1.479204 3.999493 -8.622501 7.568410 65.113224 -52.839999 -105.793907 8.266186 -5.871381 5.414858 -0.529417 -57.249458 10.232205 -94.211356 87.560593 -99.359885 -11.946934 -23.456525 15.709791 0.088559 0.291755 -0.582534 9.884990 -53.710483 -6.399500 110.074159 77.242384 106.681115 -8.132139 -24.028711 2.381970 -0.002109 0.160940 -0.007024
